<?xml version="1.0" encoding="UTF-8" standalone="no"?>
<!-- Created with Inkscape (http://www.inkscape.org/) -->

<svg
   xmlns:dc="http://purl.org/dc/elements/1.1/"
   xmlns:cc="http://creativecommons.org/ns#"
   xmlns:rdf="http://www.w3.org/1999/02/22-rdf-syntax-ns#"
   xmlns:svg="http://www.w3.org/2000/svg"
   xmlns="http://www.w3.org/2000/svg"
   xmlns:sodipodi="http://sodipodi.sourceforge.net/DTD/sodipodi-0.dtd"
   xmlns:inkscape="http://www.inkscape.org/namespaces/inkscape"
   width="2.208369mm"
   height="2.208369mm"
   viewBox="0 0 7.8249296 7.8249296"
   id="svg3787"
   version="1.1"
   inkscape:version="0.91 r13725"
   sodipodi:docname="facebook.svg">
  <defs
     id="defs3789" />
  <sodipodi:namedview
     id="base"
     pagecolor="#ffffff"
     bordercolor="#666666"
     borderopacity="1.0"
     inkscape:pageopacity="0.0"
     inkscape:pageshadow="2"
     inkscape:zoom="0.35"
     inkscape:cx="18.91246"
     inkscape:cy="181.05533"
     inkscape:document-units="px"
     inkscape:current-layer="layer1"
     showgrid="false"
     fit-margin-top="0"
     fit-margin-left="0"
     fit-margin-right="0"
     fit-margin-bottom="0"
     inkscape:window-width="1366"
     inkscape:window-height="705"
     inkscape:window-x="-8"
     inkscape:window-y="-8"
     inkscape:window-maximized="1" />
  <metadata
     id="metadata3792">
    <rdf:RDF>
      <cc:Work
         rdf:about="">
        <dc:format>image/svg+xml</dc:format>
        <dc:type
           rdf:resource="http://purl.org/dc/dcmitype/StillImage" />
        <dc:title></dc:title>
      </cc:Work>
    </rdf:RDF>
  </metadata>
  <g
     inkscape:label="Capa 1"
     inkscape:groupmode="layer"
     id="layer1"
     transform="translate(-356.08754,-705.5926)">
    <path
       id="path5196"
       d="m 362.28228,705.5926 -4.56455,0 c -0.90019,0 -1.63019,0.73 -1.63019,1.63019 l 0,4.56455 c 0,0.90019 0.73,1.63019 1.63019,1.63019 l 4.56455,0 c 0.90052,0 1.63019,-0.73 1.63019,-1.63019 l 0,-4.56455 c 0,-0.90019 -0.72967,-1.63019 -1.63019,-1.63019 z m -0.97812,2.28227 -0.6273,0 c -0.20051,0 -0.35081,0.0822 -0.35081,0.28985 l 0,0.36223 0.97811,0 -0.0776,0.97812 -0.90051,0 0,2.60831 -0.97812,0 0,-2.60831 -0.65208,0 0,-0.97812 0.65208,0 0,-0.62697 c 0,-0.65925 0.3469,-1.00322 1.12842,-1.00322 l 0.82781,0 0,0.97811 z"
       inkscape:connector-curvature="0"
       style="fill:#2a7fff" />
  </g>
</svg>
