<?xml version="1.0" encoding="UTF-8" standalone="no"?>
<svg
   xmlns:dc="http://purl.org/dc/elements/1.1/"
   xmlns:cc="http://creativecommons.org/ns#"
   xmlns:rdf="http://www.w3.org/1999/02/22-rdf-syntax-ns#"
   xmlns:svg="http://www.w3.org/2000/svg"
   xmlns="http://www.w3.org/2000/svg"
   xmlns:sodipodi="http://sodipodi.sourceforge.net/DTD/sodipodi-0.dtd"
   xmlns:inkscape="http://www.inkscape.org/namespaces/inkscape"
   width="24"
   height="24"
   viewBox="0 0 24 24"
   id="svg2"
   version="1.1"
   inkscape:version="0.91 r13725"
   sodipodi:docname="profile_img.svg">
  <metadata
     id="metadata10">
    <rdf:RDF>
      <cc:Work
         rdf:about="">
        <dc:format>image/svg+xml</dc:format>
        <dc:type
           rdf:resource="http://purl.org/dc/dcmitype/StillImage" />
      </cc:Work>
    </rdf:RDF>
  </metadata>
  <defs
     id="defs8" />
  <sodipodi:namedview
     pagecolor="#ffffff"
     bordercolor="#666666"
     borderopacity="1"
     objecttolerance="10"
     gridtolerance="10"
     guidetolerance="10"
     inkscape:pageopacity="0"
     inkscape:pageshadow="2"
     inkscape:window-width="1366"
     inkscape:window-height="705"
     id="namedview6"
     showgrid="false"
     inkscape:zoom="9.8333333"
     inkscape:cx="-3.3559322"
     inkscape:cy="12"
     inkscape:window-x="-8"
     inkscape:window-y="-8"
     inkscape:window-maximized="1"
     inkscape:current-layer="svg2" />
  <path
     d="M12 0c-6.627 0-12 5.373-12 12s5.373 12 12 12 12-5.373 12-12-5.373-12-12-12zm7.753 18.305c-.261-.586-.789-.991-1.871-1.241-2.293-.529-4.428-.993-3.393-2.945 3.145-5.942.833-9.119-2.489-9.119-3.388 0-5.644 3.299-2.489 9.119 1.066 1.964-1.148 2.427-3.393 2.945-1.084.25-1.608.658-1.867 1.246-1.405-1.723-2.251-3.919-2.251-6.31 0-5.514 4.486-10 10-10s10 4.486 10 10c0 2.389-.845 4.583-2.247 6.305z"
     id="path4" />
  <path
     style="fill:#417aeb;fill-opacity:0;stroke:#1484c8;stroke-width:0.20338982;stroke-linejoin:miter;stroke-miterlimit:4;stroke-dasharray:none;stroke-opacity:0"
     d="M 10.127331,23.80877 C 7.6889576,23.409445 5.3044005,22.178387 3.5351107,20.405452 1.2825939,18.148294 0.08135593,15.228361 0.08135593,12.010169 c 0,-8.1637446 7.97652397,-13.9189549 15.70332307,-11.33023918 6.227127,2.08627938 9.644483,8.93861928 7.541448,15.12179918 -1.098082,3.228492 -3.696712,5.995601 -6.804579,7.245742 -1.983719,0.797951 -4.407957,1.086582 -6.394217,0.761299 z M 4.5050847,18.034904 C 4.7862082,17.587954 5.3619271,17.29123 6.4372881,17.039053 8.7482186,16.497131 9.6870311,15.983818 9.8100612,15.194927 9.858594,14.883725 9.7734686,14.617073 9.3068571,13.618656 7.6966099,10.173179 7.6457264,7.7023843 9.1535884,6.1762633 10.745719,4.5648533 13.856447,4.7228041 15.129119,6.479678 c 1.192409,1.6460723 1.041575,3.971604 -0.465382,7.175173 -0.923408,1.963028 -0.487113,2.538675 2.490789,3.286347 1.478404,0.371189 1.915838,0.573733 2.333562,1.080504 l 0.307761,0.373367 0.567485,-0.870597 C 21.029525,16.502445 21.433387,15.5947 21.753434,14.4 22.051968,13.285612 22.08372,10.885005 21.814282,9.7995954 21.349813,7.9285152 20.434676,6.272136 19.153744,4.9840761 17.253477,3.073235 15.127155,2.1317158 12.460409,2.0203179 10.956801,1.9575077 9.9870144,2.0843989 8.7462925,2.5062889 2.5292729,4.6202988 0.00185112,12.119879 3.6670099,17.577966 c 0.2910825,0.433475 0.5529657,0.786373 0.5819629,0.784218 0.028997,-0.0022 0.1442475,-0.14943 0.2561119,-0.32728 z"
     id="path4138"
     inkscape:connector-curvature="0" />
  <path
     style="fill:#417aeb;fill-opacity:0;stroke:#1484c8;stroke-width:0.20338982;stroke-linejoin:miter;stroke-miterlimit:4;stroke-dasharray:none;stroke-opacity:0"
     d="M 10.127331,23.80877 C 7.6889576,23.409445 5.3044005,22.178387 3.5351107,20.405452 1.2825939,18.148294 0.08135593,15.228361 0.08135593,12.010169 c 0,-8.1637446 7.97652397,-13.9189549 15.70332307,-11.33023918 6.227127,2.08627938 9.644483,8.93861928 7.541448,15.12179918 -1.098082,3.228492 -3.696712,5.995601 -6.804579,7.245742 -1.983719,0.797951 -4.407957,1.086582 -6.394217,0.761299 z M 4.5050847,18.034904 C 4.7862082,17.587954 5.3619271,17.29123 6.4372881,17.039053 8.7482186,16.497131 9.6870311,15.983818 9.8100612,15.194927 9.858594,14.883725 9.7734686,14.617073 9.3068571,13.618656 7.6966099,10.173179 7.6457264,7.7023843 9.1535884,6.1762633 10.745719,4.5648533 13.856447,4.7228041 15.129119,6.479678 c 1.192409,1.6460723 1.041575,3.971604 -0.465382,7.175173 -0.923408,1.963028 -0.487113,2.538675 2.490789,3.286347 1.478404,0.371189 1.915838,0.573733 2.333562,1.080504 l 0.307761,0.373367 0.567485,-0.870597 C 21.029525,16.502445 21.433387,15.5947 21.753434,14.4 22.051968,13.285612 22.08372,10.885005 21.814282,9.7995954 21.349813,7.9285152 20.434676,6.272136 19.153744,4.9840761 17.253477,3.073235 15.127155,2.1317158 12.460409,2.0203179 10.956801,1.9575077 9.9870144,2.0843989 8.7462925,2.5062889 2.5292729,4.6202988 0.00185112,12.119879 3.6670099,17.577966 c 0.2910825,0.433475 0.5529657,0.786373 0.5819629,0.784218 0.028997,-0.0022 0.1442475,-0.14943 0.2561119,-0.32728 z"
     id="path4140"
     inkscape:connector-curvature="0" />
  <path
     style="fill:#1484c8;fill-opacity:1;stroke:#1484c8;stroke-width:0.20338982;stroke-linejoin:miter;stroke-miterlimit:4;stroke-dasharray:none;stroke-opacity:1"
     d="M 10.127331,23.80877 C 7.6889576,23.409445 5.3044005,22.178387 3.5351107,20.405452 1.2825939,18.148294 0.08135593,15.228361 0.08135593,12.010169 c 0,-8.1637446 7.97652397,-13.9189549 15.70332307,-11.33023918 6.227127,2.08627938 9.644483,8.93861928 7.541448,15.12179918 -1.098082,3.228492 -3.696712,5.995601 -6.804579,7.245742 -1.983719,0.797951 -4.407957,1.086582 -6.394217,0.761299 z M 4.5050847,18.034904 C 4.7862082,17.587954 5.3619271,17.29123 6.4372881,17.039053 8.7482186,16.497131 9.6870311,15.983818 9.8100612,15.194927 9.858594,14.883725 9.7734686,14.617073 9.3068571,13.618656 7.6966099,10.173179 7.6457264,7.7023843 9.1535884,6.1762633 10.745719,4.5648533 13.856447,4.7228041 15.129119,6.479678 c 1.192409,1.6460723 1.041575,3.971604 -0.465382,7.175173 -0.923408,1.963028 -0.487113,2.538675 2.490789,3.286347 1.478404,0.371189 1.915838,0.573733 2.333562,1.080504 l 0.307761,0.373367 0.567485,-0.870597 C 21.029525,16.502445 21.433387,15.5947 21.753434,14.4 22.051968,13.285612 22.08372,10.885005 21.814282,9.7995954 21.349813,7.9285152 20.434676,6.272136 19.153744,4.9840761 17.253477,3.073235 15.127155,2.1317158 12.460409,2.0203179 10.956801,1.9575077 9.9870144,2.0843989 8.7462925,2.5062889 2.5292729,4.6202988 0.00185112,12.119879 3.6670099,17.577966 c 0.2910825,0.433475 0.5529657,0.786373 0.5819629,0.784218 0.028997,-0.0022 0.1442475,-0.14943 0.2561119,-0.32728 z"
     id="path4142"
     inkscape:connector-curvature="0" />
  <path
     style="fill:#f9f9f9;fill-opacity:1;stroke:#ffffff;stroke-width:0.20338982;stroke-linejoin:miter;stroke-miterlimit:4;stroke-dasharray:none;stroke-opacity:1"
     d="M 9.7423728,23.800375 C 8.0012172,23.424292 6.1467484,22.597946 4.842307,21.616921 4.0266822,21.003518 2.8932659,19.864565 2.2650934,19.027119 1.5715801,18.102563 0.7279951,16.328283 0.44031984,15.189142 -1.2461684,8.51096 2.5396459,2.0466052 9.1290713,0.35292293 12.319088,-0.46700808 15.860919,0.16479375 18.715872,2.0630436 c 0.950743,0.6321458 2.551817,2.2249579 3.149822,3.1335666 1.002784,1.5236325 1.685756,3.2094168 1.976971,4.8797768 0.232828,1.335464 0.141678,3.534901 -0.200968,4.849329 -1.041569,3.995571 -4.267664,7.404704 -8.051867,8.508701 -1.815419,0.529628 -4.354133,0.688511 -5.8474572,0.365958 z M 20.505087,17.168824 c 0.509331,-0.843723 1.043041,-2.159523 1.26539,-3.119667 0.06541,-0.28246 0.118824,-1.245767 0.118693,-2.140682 C 21.888967,10.525284 21.85439,10.159392 21.658486,9.4677967 21.130013,7.6021162 19.911515,5.6730801 18.498668,4.46541 16.577882,2.8235643 14.944237,2.2145198 12.233898,2.1298216 10.722707,2.0825967 10.534325,2.0976623 9.5898305,2.3412769 6.1400072,3.2310942 3.557898,5.6850703 2.4816842,9.0966928 1.5929822,11.913899 2.0715223,15.088682 3.7600801,17.577966 c 0.218158,0.32161 0.4396535,0.584746 0.4922122,0.584746 0.052559,0 0.1697608,-0.113243 0.2604493,-0.251651 0.2276627,-0.347457 1.0177869,-0.702915 2.2804787,-1.02593 1.9630548,-0.50218 2.9491525,-1.101713 2.9491525,-1.793041 0,-0.163587 -0.249101,-0.878178 -0.553558,-1.58798 C 8.2864081,11.400263 8.0799315,10.596788 8.0731645,9.1627119 8.0682403,8.1191475 8.1011259,7.858381 8.3001863,7.3625459 8.6260021,6.5509788 9.3029026,5.8348349 10.128219,5.428533 c 0.651926,-0.3209425 0.72412,-0.3336177 1.900151,-0.3336177 1.056,0 1.290618,0.031425 1.722851,0.2307579 0.849253,0.3916512 1.335277,0.8686679 1.758657,1.7260658 l 0.385037,0.779748 -0.0075,1.3774769 c -0.0085,1.5563941 -0.155993,2.1514401 -1.034499,4.1740871 -0.529992,1.220238 -0.646473,1.898305 -0.392645,2.285696 0.247548,0.377806 1.005505,0.718245 2.628472,1.180587 1.538491,0.438278 2.211015,0.755539 2.48367,1.171664 0.208316,0.31793 0.248538,0.28118 0.932709,-0.852174 z"
     id="path4141"
     inkscape:connector-curvature="0" />
</svg>
