<?xml version="1.0" encoding="UTF-8" standalone="no"?>
<!-- Created with Inkscape (http://www.inkscape.org/) -->

<svg
   xmlns:dc="http://purl.org/dc/elements/1.1/"
   xmlns:cc="http://creativecommons.org/ns#"
   xmlns:rdf="http://www.w3.org/1999/02/22-rdf-syntax-ns#"
   xmlns:svg="http://www.w3.org/2000/svg"
   xmlns="http://www.w3.org/2000/svg"
   xmlns:sodipodi="http://sodipodi.sourceforge.net/DTD/sodipodi-0.dtd"
   xmlns:inkscape="http://www.inkscape.org/namespaces/inkscape"
   width="2.2333148mm"
   height="2.233309mm"
   viewBox="0 0 7.91332 7.9132997"
   id="svg3816"
   version="1.1"
   inkscape:version="0.91 r13725"
   sodipodi:docname="youtube.svg">
  <defs
     id="defs3818" />
  <sodipodi:namedview
     id="base"
     pagecolor="#ffffff"
     bordercolor="#666666"
     borderopacity="1.0"
     inkscape:pageopacity="0.0"
     inkscape:pageshadow="2"
     inkscape:zoom="0.35"
     inkscape:cx="16.09952"
     inkscape:cy="-33.186205"
     inkscape:document-units="px"
     inkscape:current-layer="layer1"
     showgrid="false"
     fit-margin-top="0"
     fit-margin-left="0"
     fit-margin-right="0"
     fit-margin-bottom="0"
     inkscape:window-width="1366"
     inkscape:window-height="705"
     inkscape:window-x="-8"
     inkscape:window-y="-8"
     inkscape:window-maximized="1" />
  <metadata
     id="metadata3821">
    <rdf:RDF>
      <cc:Work
         rdf:about="">
        <dc:format>image/svg+xml</dc:format>
        <dc:type
           rdf:resource="http://purl.org/dc/dcmitype/StillImage" />
        <dc:title></dc:title>
      </cc:Work>
    </rdf:RDF>
  </metadata>
  <g
     inkscape:label="Capa 1"
     inkscape:groupmode="layer"
     id="layer1"
     transform="translate(-358.90048,-491.2627)">
    <path
       id="path5207"
       d="m 361.95997,495.7207 -0.30961,0 0,1.6575 -0.29939,0 0,-1.6575 -0.30994,0 0,-0.2816 0.91927,0 0,0.2816 z m 1.77885,0.5674 0,0.7934 c 0,0.177 -0.066,0.3145 -0.24268,0.3145 -0.0976,0 -0.17838,-0.036 -0.2529,-0.1279 l 0,0.1098 -0.26806,0 0,-1.9388 0.26806,0 0,0.6242 c 0.0603,-0.073 0.14146,-0.1336 0.23674,-0.1336 0.19454,0 0.25884,0.1646 0.25884,0.3584 z m -0.27367,0.016 c 0,-0.048 -0.009,-0.085 -0.0284,-0.1097 -0.0323,-0.043 -0.092,-0.047 -0.13848,-0.023 l -0.0551,0.043 0,0.8912 0.0626,0.05 c 0.0435,0.022 0.10683,0.023 0.13618,-0.015 0.0152,-0.02 0.0228,-0.053 0.0228,-0.099 l 0,-0.7386 z m -0.77386,-1.9318 c 0.0755,0 0.11672,-0.06 0.11672,-0.1421 l 0,-0.6987 c 0,-0.084 -0.0366,-0.1431 -0.12232,-0.1431 -0.0782,0 -0.1164,0.061 -0.1164,0.1431 l 0,0.6987 c 3.3e-4,0.079 0.0452,0.1421 0.122,0.1421 z m -0.24169,2.6609 c -0.0326,0.041 -0.10452,0.1071 -0.15661,0.1071 -0.0567,0 -0.0709,-0.039 -0.0709,-0.096 l 0,-1.0963 -0.26543,0 0,1.1956 c 0,0.2901 0.19684,0.2918 0.33994,0.2097 0.0528,-0.03 0.10387,-0.075 0.15299,-0.1329 l 0,0.1579 0.26609,0 0,-1.4303 -0.26609,0 0,1.0854 z m 4.3642,-4.1219 0,4.6161 c 0,0.9104 -0.73792,1.6486 -1.64861,1.6486 l -4.6161,0 c -0.91036,0 -1.64861,-0.7382 -1.64861,-1.6486 l 0,-4.6161 c 0,-0.9103 0.73825,-1.6486 1.64861,-1.6486 l 4.6161,0 c 0.91069,0 1.64861,0.7383 1.64861,1.6486 z m -3.48384,1.4597 c 0,0.1484 0.0452,0.2681 0.1952,0.2681 0.0844,0 0.20146,-0.044 0.32279,-0.1877 l 0,0.1659 0.27928,0 0,-1.5016 -0.27928,0 0,1.1399 c -0.0343,0.043 -0.10979,0.1124 -0.1642,0.1124 -0.06,0 -0.0745,-0.041 -0.0745,-0.1012 l 0,-1.1511 -0.27928,0 0,1.2553 z m -1.04752,-0.8642 0,0.7363 c 0,0.2647 0.13815,0.4022 0.40885,0.4022 0.22487,0 0.4016,-0.1503 0.4016,-0.4022 l 0,-0.7363 c 0,-0.2351 -0.17508,-0.4036 -0.4016,-0.4036 -0.24564,0 -0.40885,0.1626 -0.40885,0.4036 z m -1.04028,-0.9252 0.37424,1.2101 0,0.8256 0.31422,0 0,-0.8256 0.36599,-1.2101 -0.3195,0 -0.20146,0.8138 -0.21695,-0.8138 -0.31654,0 z m 3.81291,3.8469 c -0.005,-0.9819 -0.0765,-1.3571 -0.69605,-1.3997 -0.57173,-0.039 -2.43235,-0.039 -3.00343,0 -0.61856,0.042 -0.69176,0.4161 -0.69604,1.3997 0.005,0.9819 0.0768,1.3575 0.69604,1.3997 0.57108,0.039 2.4317,0.039 3.00343,0 0.61889,-0.043 0.69143,-0.4161 0.69605,-1.3997 z m -0.33335,-0.096 0,0.364 -0.50843,0 0,0.2697 c 0,0.1072 0.009,0.2002 0.11606,0.2002 0.1121,0 0.1187,-0.076 0.1187,-0.2002 l 0,-0.099 0.27367,0 0,0.1075 c 0,0.2757 -0.11804,0.4425 -0.39831,0.4425 -0.25421,0 -0.38379,-0.185 -0.38379,-0.4425 l 0,-0.6419 c 0,-0.2483 0.16387,-0.4204 0.40391,-0.4204 0.25487,-4e-4 0.37819,0.1619 0.37819,0.4204 z m -0.27367,0 c 0,-0.097 -0.0204,-0.1675 -0.11639,-0.1675 -0.0986,0 -0.11837,0.069 -0.11837,0.1675 l 0,0.1448 0.23476,0 0,-0.1448 z"
       inkscape:connector-curvature="0"
       style="fill:#d40000" />
  </g>
</svg>
